<svg width="224" height="40" viewBox="0 0 224 40" fill="none" xmlns="http://www.w3.org/2000/svg">
<path d="M7.072 10.272V14.412H15.172V19.776H7.072V24.348H16.252V30H0.0160001V4.62H16.252V10.272H7.072ZM32.9507 9.624C35.2787 9.624 37.1267 10.404 38.4947 11.964C39.8627 13.5 40.5467 15.588 40.5467 18.228V30H33.4907V19.164C33.4907 18.012 33.1907 17.112 32.5907 16.464C31.9907 15.792 31.1867 15.456 30.1787 15.456C29.1227 15.456 28.2947 15.792 27.6947 16.464C27.0947 17.112 26.7947 18.012 26.7947 19.164V30H19.7387V9.804H26.7947V12.684C27.4187 11.772 28.2587 11.04 29.3147 10.488C30.3707 9.912 31.5827 9.624 32.9507 9.624ZM51.8703 9.552C53.2383 9.552 54.4263 9.828 55.4343 10.38C56.4663 10.932 57.2583 11.676 57.8103 12.612V9.804H64.8663V29.784C64.8663 31.68 64.5063 33.384 63.7863 34.896C63.0663 36.432 61.9383 37.656 60.4023 38.568C58.8903 39.48 56.9703 39.936 54.6423 39.936C51.5223 39.936 49.0263 39.204 47.1543 37.74C45.2823 36.276 44.2143 34.284 43.9503 31.764H50.8983C51.0423 32.412 51.4023 32.916 51.9783 33.276C52.5543 33.636 53.2983 33.816 54.2103 33.816C56.6103 33.816 57.8103 32.472 57.8103 29.784V27.192C57.2583 28.128 56.4663 28.872 55.4343 29.424C54.4263 29.976 53.2383 30.252 51.8703 30.252C50.2623 30.252 48.7983 29.832 47.4783 28.992C46.1823 28.152 45.1503 26.952 44.3823 25.392C43.6383 23.808 43.2663 21.972 43.2663 19.884C43.2663 17.796 43.6383 15.972 44.3823 14.412C45.1503 12.852 46.1823 11.652 47.4783 10.812C48.7983 9.972 50.2623 9.552 51.8703 9.552ZM57.8103 19.884C57.8103 18.588 57.4503 17.568 56.7303 16.824C56.0343 16.08 55.1703 15.708 54.1383 15.708C53.0823 15.708 52.2063 16.08 51.5103 16.824C50.8143 17.544 50.4663 18.564 50.4663 19.884C50.4663 21.18 50.8143 22.212 51.5103 22.98C52.2063 23.724 53.0823 24.096 54.1383 24.096C55.1703 24.096 56.0343 23.724 56.7303 22.98C57.4503 22.236 57.8103 21.204 57.8103 19.884ZM75.9431 3.36V30H68.8871V3.36H75.9431ZM83.5253 7.932C82.2773 7.932 81.2693 7.596 80.5013 6.924C79.7573 6.228 79.3853 5.364 79.3853 4.332C79.3853 3.276 79.7573 2.4 80.5013 1.704C81.2693 1.008 82.2773 0.659998 83.5253 0.659998C84.7493 0.659998 85.7333 1.008 86.4773 1.704C87.2453 2.4 87.6293 3.276 87.6293 4.332C87.6293 5.364 87.2453 6.228 86.4773 6.924C85.7333 7.596 84.7493 7.932 83.5253 7.932ZM87.0173 9.804V30H79.9613V9.804H87.0173ZM99.6395 30.252C97.8155 30.252 96.1835 29.952 94.7435 29.352C93.3275 28.728 92.1995 27.888 91.3595 26.832C90.5435 25.752 90.0875 24.54 89.9915 23.196H96.8315C96.9275 23.844 97.2275 24.348 97.7315 24.708C98.2355 25.068 98.8595 25.248 99.6035 25.248C100.18 25.248 100.636 25.128 100.972 24.888C101.308 24.648 101.476 24.336 101.476 23.952C101.476 23.448 101.2 23.076 100.648 22.836C100.096 22.596 99.1835 22.332 97.9115 22.044C96.4715 21.756 95.2715 21.432 94.3115 21.072C93.3515 20.712 92.5115 20.124 91.7915 19.308C91.0955 18.492 90.7475 17.388 90.7475 15.996C90.7475 14.796 91.0715 13.716 91.7195 12.756C92.3675 11.772 93.3155 10.992 94.5635 10.416C95.8355 9.84 97.3595 9.552 99.1355 9.552C101.776 9.552 103.852 10.2 105.364 11.496C106.876 12.792 107.752 14.496 107.992 16.608H101.62C101.5 15.96 101.212 15.468 100.756 15.132C100.324 14.772 99.7355 14.592 98.9915 14.592C98.4155 14.592 97.9715 14.7 97.6595 14.916C97.3715 15.132 97.2275 15.432 97.2275 15.816C97.2275 16.296 97.5035 16.668 98.0555 16.932C98.6075 17.172 99.4955 17.424 100.72 17.688C102.184 18 103.396 18.348 104.356 18.732C105.34 19.116 106.192 19.74 106.912 20.604C107.656 21.444 108.028 22.596 108.028 24.06C108.028 25.236 107.68 26.292 106.984 27.228C106.312 28.164 105.34 28.908 104.068 29.46C102.82 29.988 101.344 30.252 99.6395 30.252ZM124.78 9.624C127.084 9.624 128.908 10.404 130.252 11.964C131.62 13.5 132.304 15.588 132.304 18.228V30H125.248V19.164C125.248 18.012 124.948 17.112 124.348 16.464C123.748 15.792 122.944 15.456 121.936 15.456C120.88 15.456 120.052 15.792 119.452 16.464C118.852 17.112 118.552 18.012 118.552 19.164V30H111.496V3.36H118.552V12.684C119.176 11.772 120.016 11.04 121.072 10.488C122.152 9.912 123.388 9.624 124.78 9.624Z" fill="#1991EB"/>
<path d="M135.348 17.328C135.348 14.832 135.888 12.612 136.968 10.668C138.048 8.7 139.548 7.176 141.468 6.096C143.412 4.992 145.608 4.44 148.056 4.44C151.056 4.44 153.624 5.232 155.76 6.816C157.896 8.4 159.324 10.56 160.044 13.296H153.276C152.772 12.24 152.052 11.436 151.116 10.884C150.204 10.332 149.16 10.056 147.984 10.056C146.088 10.056 144.552 10.716 143.376 12.036C142.2 13.356 141.612 15.12 141.612 17.328C141.612 19.536 142.2 21.3 143.376 22.62C144.552 23.94 146.088 24.6 147.984 24.6C149.16 24.6 150.204 24.324 151.116 23.772C152.052 23.22 152.772 22.416 153.276 21.36H160.044C159.324 24.096 157.896 26.256 155.76 27.84C153.624 29.4 151.056 30.18 148.056 30.18C145.608 30.18 143.412 29.64 141.468 28.56C139.548 27.456 138.048 25.932 136.968 23.988C135.888 22.044 135.348 19.824 135.348 17.328ZM176.162 9.696C178.466 9.696 180.314 10.464 181.706 12C183.098 13.512 183.794 15.6 183.794 18.264V30H177.674V19.092C177.674 17.748 177.326 16.704 176.63 15.96C175.934 15.216 174.998 14.844 173.822 14.844C172.646 14.844 171.71 15.216 171.014 15.96C170.318 16.704 169.97 17.748 169.97 19.092V30H163.814V3.36H169.97V12.612C170.594 11.724 171.446 11.016 172.526 10.488C173.606 9.96 174.818 9.696 176.162 9.696ZM186.848 19.92C186.848 17.856 187.232 16.044 188 14.484C188.792 12.924 189.86 11.724 191.204 10.884C192.548 10.044 194.048 9.624 195.704 9.624C197.12 9.624 198.356 9.912 199.412 10.488C200.492 11.064 201.32 11.82 201.896 12.756V9.912H208.052V30H201.896V27.156C201.296 28.092 200.456 28.848 199.376 29.424C198.32 30 197.084 30.288 195.668 30.288C194.036 30.288 192.548 29.868 191.204 29.028C189.86 28.164 188.792 26.952 188 25.392C187.232 23.808 186.848 21.984 186.848 19.92ZM201.896 19.956C201.896 18.42 201.464 17.208 200.6 16.32C199.76 15.432 198.728 14.988 197.504 14.988C196.28 14.988 195.236 15.432 194.372 16.32C193.532 17.184 193.112 18.384 193.112 19.92C193.112 21.456 193.532 22.68 194.372 23.592C195.236 24.48 196.28 24.924 197.504 24.924C198.728 24.924 199.76 24.48 200.6 23.592C201.464 22.704 201.896 21.492 201.896 19.956ZM223.701 24.78V30H220.569C218.337 30 216.597 29.46 215.349 28.38C214.101 27.276 213.477 25.488 213.477 23.016V15.024H211.029V9.912H213.477V5.016H219.633V9.912H223.665V15.024H219.633V23.088C219.633 23.688 219.777 24.12 220.065 24.384C220.353 24.648 220.833 24.78 221.505 24.78H223.701Z" fill="#E12E44"/>
</svg>
